<svg xmlns="http://www.w3.org/2000/svg" viewBox="0 0 596 655"><defs><style>.cls-1{fill:#5195e5;}.cls-2{fill:#2a6ac1;}.cls-3{fill:#131418;}.cls-4{fill:#d8dde1;}.cls-5{fill:#b6becb;opacity:0.8;isolation:isolate;}.cls-6{fill:#c8eff9;}.cls-7,.cls-8,.cls-9{fill:#fff;stroke:#5195e5;stroke-miterlimit:10;}.cls-7{stroke-width:7px;}.cls-8{stroke-width:6px;}.cls-9{stroke-width:5px;}.cls-10{fill:none;}</style></defs><title>tiledesk ai chatbot for live chat</title><g id="chats"><path class="cls-1" d="M447.4,172.6c-85.6-85.5-224.2-85.5-309.7,0-73.3,73.3-83.8,185.6-31.5,270L80.5,538.4l95.3-25.5a218.2,218.2,0,0,0,25.6,13.8A83,83,0,0,1,283,458.6h0A82.9,82.9,0,0,1,365.6,534a219.2,219.2,0,0,0,81.8-51.6C532.9,396.8,532.9,258.2,447.4,172.6Z"/><path class="cls-2" d="M230.2,488.7A74.6,74.6,0,0,1,356,525.8a74.7,74.7,0,0,0-146.8,4.3h0A74.5,74.5,0,0,1,230.2,488.7Z"/><path class="cls-3" d="M283,458.6a83,83,0,0,0-81.6,68.1l7.8,3.4A74.7,74.7,0,0,1,283,466.8h0a74.7,74.7,0,0,1,73,59c.1.1.1.1.1.2l.6,3.2v.4c.2,1.1.4,2.1.5,3.1v.6c.2,1,.2,2,.3,3v.4l8.1-2.7A82.9,82.9,0,0,0,283,458.6Z"/><path class="cls-4" d="M152.4,261.4h1.3V382.2h-1.3a31.5,31.5,0,0,1-31.5-31.5V292.8A31.5,31.5,0,0,1,152.4,261.4Z"/><path class="cls-4" d="M333.6,176.9a113.3,113.3,0,0,0-44.4-9H276.8a114.4,114.4,0,0,0-105.2,69.9,112.6,112.6,0,0,0-9.1,44.3V390.5a57.4,57.4,0,0,0,57.2,57.2H346.3a57.4,57.4,0,0,0,57.2-57.2V282.1a114.4,114.4,0,0,0-69.9-105.2Z"/><path class="cls-3" d="M289.2,159.7H276.8c-67.3,0-122.4,55.1-122.4,122.4V390.5a65.5,65.5,0,0,0,65.3,65.4H346.3a65.6,65.6,0,0,0,65.4-65.4V282.1C411.7,214.8,356.6,159.7,289.2,159.7ZM403.5,390.5a57.4,57.4,0,0,1-57.2,57.2H219.7a57.4,57.4,0,0,1-57.2-57.2V282.1a112.6,112.6,0,0,1,9.1-44.3,114.8,114.8,0,0,1,60.9-60.9,112.5,112.5,0,0,1,44.3-9h12.4A114.4,114.4,0,0,1,403.5,282.1Z"/><path class="cls-5" d="M147.5,270.2h-.7c-10.1,0-18.4,12.1-18.4,26.9v49.4c0,14.8,8.3,26.8,18.4,26.8h.7v-103Z"/><path class="cls-4" d="M413.6,261.4h-1.3V382.2h1.3a31.5,31.5,0,0,0,31.5-31.5V292.8A31.5,31.5,0,0,0,413.6,261.4Z"/><path class="cls-3" d="M221.6,306.4A12.7,12.7,0,1,1,209,319.1h0a12.6,12.6,0,0,1,12.6-12.6m0-9.5a22.2,22.2,0,1,0,22.2,22.2h0a22.3,22.3,0,0,0-22.2-22.2Z"/><path class="cls-3" d="M347.2,306.4a12.7,12.7,0,1,1-12.7,12.7h0a12.7,12.7,0,0,1,12.7-12.6m0-9.5A22.2,22.2,0,1,0,369.4,319h0a22.3,22.3,0,0,0-22.2-22.2Z"/><path class="cls-3" d="M285.7,387.6c-22.4,0-35.8-10.8-35.8-29a4.8,4.8,0,0,1,9.6-.4v.4c0,17,16.4,19.5,26.2,19.5s26.3-2.5,26.3-19.5a4.8,4.8,0,0,1,4.6-4.9,4.7,4.7,0,0,1,5,4.5v.4C321.6,376.8,308.2,387.6,285.7,387.6Z"/><path class="cls-5" d="M241.1,173.6a114.9,114.9,0,0,0-78.6,108.5V390.5a57.4,57.4,0,0,0,57.2,57.2h26.7c-73.3-75.8-75.6-195.4-5.3-274.1Z"/><circle class="cls-4" cx="438.3" cy="155.2" r="14"/><path class="cls-3" d="M438.3,133.1a22.1,22.1,0,0,0-22.2,22.2,21.5,21.5,0,0,0,3.8,12.3l-41.7,38.2,5.5,6,41.9-38.4A22.2,22.2,0,1,0,450.9,137a21.9,21.9,0,0,0-12.6-4Zm0,36.1a14,14,0,1,1,14-14h0A14,14,0,0,1,438.3,169.2Z"/><circle class="cls-6" cx="434.7" cy="151.3" r="7.7"/><circle class="cls-4" cx="128.7" cy="155.2" r="14"/><path class="cls-3" d="M106.5,155.2a22.2,22.2,0,0,0,22.2,22.2,22.9,22.9,0,0,0,12.7-3.9l41.9,38.3,5.5-6-41.7-38.2a22.2,22.2,0,0,0-36.8-24.8A22.9,22.9,0,0,0,106.5,155.2Zm8.2,0a14,14,0,1,1,14,14h0A14,14,0,0,1,114.7,155.2Z"/><circle class="cls-6" cx="124.8" cy="152" r="7.7"/><path class="cls-5" d="M292.2,467.4c-3-.3-6.1-.5-9.2-.5a74.5,74.5,0,0,0-73.8,63.2,202.5,202.5,0,0,0,19.8,7c2.8-16.8,9.7-32.4,20-44.7C260.7,478.4,276,469.7,292.2,467.4Z"/><path class="cls-4" d="M357.5,536.7v-.4c-.1-1-.1-2-.3-3v-.6c-.1-1-.3-2-.5-3.1v-.3l-.6-3.3c0-.1,0-.1-.1-.2a74.7,74.7,0,0,0-63.8-58.4c-16.2,2.3-31.5,11-43.2,25-10.3,12.3-17.2,27.9-20,44.7A219.8,219.8,0,0,0,357.5,536.7Z"/><path class="cls-4" d="M283,490.6a23.2,23.2,0,0,0,23.2-23.2V454.9H259.8v12.5A23.2,23.2,0,0,0,283,490.6Z"/><path class="cls-5" d="M259.8,454.9v15.6c18.4-6.4,46.4-8.1,46.4-8.1v-7.5Z"/><path class="cls-3" d="M305.1,456v11.4a22.1,22.1,0,0,1-44.1,0V456h44.1m8-8H253v19.4a30.1,30.1,0,0,0,60.1,0V448Z"/><path class="cls-3" d="M413.6,253.2h-1.3a7.8,7.8,0,0,0-3.9,1c-12.7-54-61.4-94.5-119.2-94.5H276.8c-57.7,0-106.5,40.5-119.2,94.5a7.8,7.8,0,0,0-3.9-1h-1.3a39.8,39.8,0,0,0-39.7,39.6v57.9a39.9,39.9,0,0,0,39.7,39.7h2a65.5,65.5,0,0,0,65.3,65.4H346.3a65.6,65.6,0,0,0,65.4-65.4h1.9a39.9,39.9,0,0,0,39.7-39.7V292.8A39.8,39.8,0,0,0,413.6,253.2Zm-259.9,129h-1.3a31.5,31.5,0,0,1-31.5-31.5V292.8a31.5,31.5,0,0,1,31.5-31.4h1.3Zm249.8-.1c-7.5,4.8-29.4,17.9-50.3,20.9a12.2,12.2,0,1,0,.3,9.6c19.5-2.6,39.2-12.8,49.9-19.2a57.4,57.4,0,0,1-57.1,54.3H219.7a57.4,57.4,0,0,1-57.2-57.2V282.1a112.6,112.6,0,0,1,9.1-44.3,114.8,114.8,0,0,1,60.9-60.9,112.5,112.5,0,0,1,44.3-9h12.4A114.4,114.4,0,0,1,403.5,282.1Zm41.6-31.4a31.5,31.5,0,0,1-31.5,31.5h-1.2V261.4h1.3a31.5,31.5,0,0,1,31.4,31.5Z"/><circle class="cls-7" cx="69.1" cy="315.4" r="27.8"/><circle class="cls-8" cx="24.2" cy="243" r="17.2"/><circle class="cls-7" cx="504.3" cy="381.2" r="27.8"/><circle class="cls-9" cx="508.9" cy="456.2" r="13.9"/><circle class="cls-8" cx="568.3" cy="453.2" r="17.8"/><rect class="cls-10" width="596" height="655"/></g></svg>